<svg xmlns="http://www.w3.org/2000/svg" width="800" height="790" stroke="none" stroke-linecap="round" stroke-linejoin="round" fill="#fff" fill-rule="evenodd"><path d="M399.997 0C179.447 0 0 177.2 0 394.9951 0 612.8089 179.447 790 399.997 790 620.553 790 800 612.8089 800 394.9951 800 177.2 620.553 0 399.997 0"/><path d="M385.3693 402.0991l-11.666 25.5259c-14.516 32.4759-30.59 71.9937-36.462 97.3102-2.11 9.0169-3.416 20.1914-3.392 32.5806 0 4.901.267 10.0508.688 15.2964 20.522 7.4467 42.687 11.5419 65.834 11.5814 21.073-.0395 41.316-3.477 60.263-9.6983-4.453-4.0211-8.703-8.3078-12.571-13.1367-25.689-32.3455-40.02-79.7515-62.694-159.4595M290.531 241.3924c-49.059 34.1418-81.163 90.454-81.285 154.2692.122 62.8623 31.26 118.4457 79.084 152.7297 11.732-48.2532 41.138-92.4379 85.235-181.0018-2.619-7.1041-5.603-14.8806-8.943-23.0492-12.216-30.26-29.848-65.4022-45.582-81.3157-8.022-8.3128-17.756-15.4969-28.509-21.6322" fill="#91dc47"/><path d="M566.8558 612.1366c-25.312-3.1323-46.203-6.9125-64.478-13.2789-30.738 15.0722-65.353 23.5855-102.007 23.5855-126.824 0-229.634-101.5071-229.649-226.7814 0-67.9726 30.325-128.9062 78.299-170.4632-12.83-3.0613-26.212-4.8486-39.88-4.8239-67.381.626-138.51 37.4499-168.123 136.8991-2.768 14.4757-2.108 25.4212-2.108 38.394 0 197.1415 161.846 356.9624 361.471 356.9624 122.256 0 230.256-59.9866 295.66-151.7293-35.376 8.7048-69.394 12.8681-98.525 12.957-10.92 0-21.169-.5767-30.66-1.7213" fill="#63b132"/><path d="M498.931 542.97c2.232 1.0922 7.291 2.8756 14.332 4.8476 47.365-34.3363 78.147-89.6442 78.269-152.1549h-.019c-.178-104.2139-85.582-188.5355-191.141-188.7419-20.981.0405-41.137 3.4592-60.009 9.634 38.81 43.6841 57.472 106.1119 75.525 174.3985.01.0316.025.0553.031.0809.035.0544 5.775 18.962 15.631 44.0475 9.788 25.0509 23.732 56.0633 38.938 78.6652 9.984 15.1453 20.966 26.0295 28.443 29.2231" fill="#90b4fe"/><path d="M400.381 38.7001c-121.075 0-228.176 58.857-293.775 149.1036 34.141-21.1137 69-28.7293 99.422-28.4588 42.019.1215 75.053 12.9857 90.903 21.7873 3.828 2.1784 7.462 4.5237 11.022 6.9332 28.281-12.3003 59.531-19.1782 92.418-19.1782 126.841.0158 229.666 101.5219 229.685 226.7754h-.019c0 63.1486-26.157 120.2469-68.321 161.3624 10.349 1.1455 21.387 1.8585 32.658 1.8022 40.035.0188 83.307-8.7048 115.748-35.6478 21.152-17.5952 38.874-43.3591 48.703-81.9881 1.921-14.9202 3.028-30.0872 3.028-45.5228 0-197.1326-161.831-356.9684-361.472-356.9684" fill="#5881d8"/></svg>